<svg width="190" height="40" viewBox="0 0 190 40" fill="none" xmlns="http://www.w3.org/2000/svg">
<path d="M36.9769 2.14545H2.04614V36.9091H36.9769V2.14545Z" fill="#00B67A"/>
<path d="M74.7942 2.14545H39.8635V36.9091H74.7942V2.14545Z" fill="#00B67A"/>
<path d="M112.648 2.14545H77.7173V36.9091H112.648V2.14545Z" fill="#00B67A"/>
<path d="M150.502 2.14545H115.571V36.9091H150.502V2.14545Z" fill="#00B67A"/>
<path d="M188.356 2.14545H153.425V36.9091H188.356V2.14545Z" fill="#DCDCE6"/>
<path d="M153.425 2.14545H188.392L188.246 36.9091H153.425V2.14545Z" fill="#00B67A"/>
<path d="M19.5116 25.5636L24.8096 24.2182L27.0385 31.0182L19.5116 25.5636ZM31.7154 16.7636H22.3616L19.475 8L16.5885 16.7636H7.27118L14.8346 22.1818L11.9481 30.9454L19.5116 25.5273L24.1519 22.1818L31.7154 16.7636Z" fill="white"/>
<path d="M57.3654 25.5636L62.6635 24.2182L64.8923 31.0182L57.3654 25.5636ZM69.5692 16.7636H60.2154L57.3654 8L54.4788 16.7636H45.125L52.6885 22.1818L49.8019 30.9454L57.3654 25.5273L62.0058 22.1818L69.5692 16.7636Z" fill="white"/>
<path d="M95.2192 25.5636L100.517 24.2182L102.746 31.0182L95.2192 25.5636ZM107.423 16.7636H98.0692L95.1827 8L92.2962 16.7636H82.9423L90.5058 22.1818L87.6192 30.9454L95.1827 25.5273L99.8596 22.1818L107.423 16.7636Z" fill="white"/>
<path d="M133.037 25.5636L138.335 24.2182L140.563 31.0182L133.037 25.5636ZM145.277 16.7636H135.923L133.037 8L130.15 16.7636H120.796L128.36 22.1818L125.473 30.9454L133.037 25.5273L137.713 22.1818L145.277 16.7636Z" fill="white"/>
<path d="M170.89 25.5636L176.188 24.2182L178.417 31.0182L170.89 25.5636ZM183.131 16.7636H173.777L170.89 8L168.004 16.7636H158.65L166.213 22.1818L163.327 30.9454L170.89 25.5273L175.567 22.1818L183.131 16.7636Z" fill="white"/>
</svg>
